<?xml version="1.0"?><svg version="1.2" baseProfile="tiny-ps" viewBox="0 0 300 300" xmlns="http://www.w3.org/2000/svg" xmlns:xlink="http://www.w3.org/1999/xlink"><title>responde</title><g><g fill="#f6f6f6" transform="matrix(.1 0 0 -.1 0 300)"><path d="M0 1500V0h3000v3000H0V1500z"/></g><g fill="#cfcfcf" transform="matrix(.1 0 0 -.1 0 300)"><path d="M1830 2709c-93-15-163-30-210-44-25-7-72-21-105-30-207-62-487-209-715-378l-95-71-109-105c-170-166-274-308-369-503-76-156-107-249-132-398l-15-85V925l19-90 18-90 34-70 34-70 85-85 85-85 80-42c95-49 178-78 283-98l77-15h331l102 15c256 39 461 115 689 258l83 52v22c0 12-3 28-6 37l-6 16h-18c-10 0-42-12-72-27-110-57-243-99-438-139l-85-17h-180l-180-1-80 18-80 18-101 48-100 49-62 66-62 66-24 47c-33 66-53 144-61 237l-6 80 11 74 10 75 36 105 35 105 50 96c27 52 80 138 117 190l67 94 100 101c227 229 493 380 810 461l110 28h175l175 1 80-27c102-34 162-68 228-128l53-48 27-49c14-27 33-76 42-108l15-59v-121l-20-83c-36-151-108-293-231-458l-69-92-75-70-76-71-56-27-56-28-56-4-56-3-35 18-35 18-3 25-3 25 242 385c133 212 250 398 261 413l20 28-7 7c-4 4-67 9-141 10l-135 4-51-54-50-53-5 14c-3 8-21 31-39 51l-34 38-52 22-51 22-111-4-111-4-65-23c-278-96-518-317-665-610l-36-73-20-77-20-76-1-76v-77l25-55 25-56 39-24 38-25 59-12 59-12 56 7c125 15 221 62 359 178l84 70 19 31c23 37 23 36 4-34-8-30-15-74-15-98v-43l14-33 14-33 38-24 39-24 135 1 135 2 90 26 90 27 100 49c268 130 473 317 620 564l54 91 36 92c19 51 42 125 50 164l15 70v92l-1 92-14 60-14 60-40 80-40 80-51 58c-117 130-283 215-495 253l-80 14-150-1c-82-1-175-5-205-10zm-94-923 34-34v-77l-19-40c-10-22-57-105-105-184l-86-143-6-34c-3-18-12-50-20-71l-14-38 6 48 6 47h-7c-4 0-34-25-68-55l-61-56-63-31-63-31-50-5-50-5-30 13-31 13-14 28-15 28v33c0 71 53 194 139 323l46 69 75 76 75 76 50 30c27 16 63 34 80 40l30 12 64 1 63 1 34-34z"/></g><g fill="#a3a3a3" transform="matrix(.1 0 0 -.1 0 300)"><path d="M1765 2695c-385-71-790-277-1119-570-272-243-481-592-541-908l-15-79V885l15-65c21-89 50-154 100-225 108-152 296-258 530-301l80-14h290l104 15c265 38 483 118 699 258l94 60-6 21c-3 12-6 27-6 34v12h-18c-10 0-26-6-37-13-66-46-308-124-490-159l-70-13-195 1-195 1-80 21-80 22-83 41-84 41-62 61-63 62-31 65-32 65-16 75-16 75 5 110 5 110 25 80c134 445 487 825 948 1020l105 44 120 32 119 33h190l190 1 60-19c33-10 91-35 130-54l69-37 52-52 52-52 33-68 32-68 5-96 5-97-17-73c-36-162-125-331-264-505l-83-104-62-50c-34-28-82-60-107-72l-45-22-56-4-57-4-36 12-36 12-10 18-10 19 10 25c5 14 87 148 181 298 95 150 210 333 255 406l83 132h-73c-40 0-101 3-135 6l-61 7-57-57-58-57-3 10c-2 5-16 27-32 49l-28 39-48 23-49 23-86 5-86 4-80-20-81-21-85-40-84-40-79-59c-204-152-354-352-430-574l-25-73-6-80-6-81 17-56 16-56 39-35 40-36 38-10 38-11h140l54 15c109 29 240 113 345 223l39 40 13 53c8 29 12 55 9 57-2 3-30-18-62-45-76-65-135-98-207-117l-60-16-37 10-38 10-22 28-21 27 5 67 4 67 36 75c20 42 57 109 83 148l47 73 91 92 92 92 63 30 63 29 48 7 48 7 45-20 45-20 11-20 11-21v-94l-37-66c-20-36-63-109-96-161l-59-95-40-135c-22-74-42-157-45-185l-4-50 18-35 18-35 33-22 33-22 56-7 55-7 100 12 101 11 91 31 91 30 105 55 105 55 80 59c168 125 314 291 411 468l52 93 30 92 31 93 12 91 12 91-12 88-12 89-26 65c-64 161-191 290-359 368l-72 33-97 24-98 25-206-1-206-1-70-13z"/></g><g fill="#727272" transform="matrix(.1 0 0 -.1 0 300)"><path d="M1775 2694c-314-58-627-196-924-408l-115-81-114-110c-63-60-140-141-172-180-162-198-283-442-342-685l-13-55V865l14-55c7-30 29-88 48-128l34-72 62-67 62-66 73-48 73-48 77-29c42-17 112-38 155-47l77-17 238 5 237 5 93 21c212 47 427 138 582 245l75 52-3 24c-2 14-7 28-11 33l-7 7-85-39c-104-48-243-93-380-123l-104-23-220 1H965l-90 28c-49 15-117 41-150 59l-60 31-70 71-70 70-23 45c-36 73-50 122-62 221l-12 94 16 94c39 222 149 447 323 661l69 85 95 83c213 188 461 320 723 387l98 25 112 11 113 12 95-12 96-11 72-24c39-14 97-40 127-58l55-33 48-53 49-52 25-54 25-54 12-72 11-73-12-81-12-81-34-91c-87-232-290-503-448-598l-58-35-53-11-54-11-43 11c-50 14-78 36-78 61 0 22 5 29 298 497 122 194 222 355 222 357 0 3-62 5-139 5h-139l-47-56-48-56-15 28c-8 16-28 44-45 61l-31 33-45 17-46 18-95-1h-95l-75-23c-91-28-171-68-270-134l-75-50-90-91c-178-179-286-372-316-566l-11-72 11-61 11-62 27-39 28-39 40-21 40-21h190l55 17c78 25 170 82 266 166 95 82 99 89 109 157l8 50-49-45c-27-25-71-60-99-77l-50-31-58-17-58-17-39 7-39 7-25 25-26 25-6 33-6 33 16 61c19 75 52 141 124 251l56 84 77 76 76 75 54 32 55 33 56 11 57 11 35-6 35-7 30-24 29-25 6-32 5-33-8-36-8-37-93-153-92-154-39-132-39-131V939l17-25 16-25 36-18c20-10 56-21 81-25l46-7 99 11 99 12 80 25c115 36 229 92 353 175l108 72 105 105 105 106 61 90c77 112 134 226 167 330l25 80 11 89 11 88-11 77c-13 97-33 161-75 238-87 158-243 273-460 339l-89 27-215 3-215 3-80-15z"/></g><g fill="#393939" transform="matrix(.1 0 0 -.1 0 300)"><path d="M1770 2690c-470-84-991-386-1296-753-181-216-288-419-351-667l-27-105V875l17-69 17-69 35-66c85-162 242-280 462-348l88-27 250-1h250l105 23c229 51 411 125 583 237l87 57v22c0 11-4 27-8 33l-8 13-70-34c-96-48-221-90-355-120l-114-25-122-12-123-11-117 11-118 11-75 21-74 20-81 42-80 42-58 58-59 59-34 72-34 72-15 78c-36 186-4 347 115 591l58 120 68 95 68 95 101 101c199 202 417 339 674 424 149 50 250 70 382 77l106 6 83-12 83-13 71-25c85-31 156-75 213-133l42-42 29-57 30-56 13-63 12-63-6-81-7-80-33-98-33-97-53-95c-100-180-246-353-362-428l-59-38-51-12-50-12-41 6c-22 4-53 13-69 22l-29 15v57l218 349c121 191 238 377 261 413l42 65-132 3-133 3-57-57-57-57-20 39c-33 65-84 98-179 115l-57 11-79-12-80-12-71-25c-304-109-596-424-686-739l-20-69v-171l25-50 25-49 33-22 33-23 58-12 58-11 77 12 76 11 73 35c83 39 164 99 239 177l51 53 11 40c6 22 11 44 11 48s-28-15-62-43c-35-28-90-64-123-80l-60-30-46-6-47-6-37 12-37 12-19 32-19 31v37c0 120 141 362 294 505l65 61 67 33 66 33 58 4 57 4 37-17 37-18 16-30 15-31-5-47-6-48-95-158-94-158-41-137-41-137V941l30-35 31-35 36-12 36-12 116 6 116 5 80 22 80 21 94 45c173 81 297 169 429 304l84 84 64 93c79 113 143 240 178 353l27 85 5 110 6 110-16 75-16 75-40 81-40 81-68 70-69 71-78 46-79 46-76 25c-41 14-107 32-145 40l-70 15-170-1-170-1-105-18z"/></g><g fill="#030303" transform="matrix(.1 0 0 -.1 0 300)"><path d="M1770 2688c-198-42-297-74-460-146-636-281-1092-788-1195-1328l-15-79V883l20-77 20-77 32-62 33-61 54-59c98-105 212-173 379-224l87-27h235l235-1 109 23c60 13 152 37 205 53l96 31 120 58c66 32 152 80 190 107l70 49-3 24c-2 14-6 27-8 29-3 3-28-7-57-21-130-66-337-127-518-153l-104-15h-205l-101 15-100 15-79 30c-197 77-308 193-360 381l-20 74v200l19 80c64 263 217 519 440 733l86 83 106 74c219 154 444 249 687 291l96 16 136-5 135-4 60-17c33-9 93-32 133-51l73-35 60-59 60-60 30-65 30-64 7-69 7-68-7-68c-3-37-14-94-24-125-60-196-228-454-386-595l-62-56-55-27-56-28-56-4-57-4-36 12-37 12-15 23-15 23 14 34c8 18 88 150 178 293 252 397 329 522 329 529 0 3-58 6-129 6h-129l-47-55-47-55h-28v31l-48 48-48 48-46 11c-102 26-225 13-356-38l-79-30-94-62-94-61-100-101-100-101-48-72c-26-39-65-109-87-155l-40-83-20-79-20-79v-56c0-68 13-118 43-162l22-34 45-22 44-23h174l66 20 65 21 73 48c40 27 103 77 140 111l67 61 11 37c5 20 10 44 10 51v15l-32-30c-56-52-109-87-167-111l-56-23h-113l-31 26-30 25-10 36-10 36 10 45c34 155 189 385 339 504 61 48 116 74 179 86l53 10 34-8c43-10 80-34 95-61l11-22-4-56-5-56-95-160-96-160-42-148-42-148 5-40c3-22 13-51 22-65l17-26 41-19 42-19h150l80 14c158 29 294 87 470 204l100 66 100 100 101 101 61 86c34 47 85 131 112 186l51 99 26 100 27 99 1 110v110l-18 65c-10 36-34 96-54 134l-36 70-55 59c-104 112-234 185-417 231l-62 16-223-1-224-1-45-10z"/></g></g></svg>