<!DOCTYPE svg PUBLIC "-//W3C//DTD SVG 1.1//EN" "http://www.w3.org/Graphics/SVG/1.1/DTD/svg11.dtd">
<!-- Uploaded to: SVG Repo, www.svgrepo.com, Transformed by: SVG Repo Mixer Tools -->
<svg width="256px" height="256px" viewBox="0 0 36 36" xmlns="http://www.w3.org/2000/svg" xmlns:xlink="http://www.w3.org/1999/xlink" aria-hidden="true" role="img" class="iconify iconify--twemoji" preserveAspectRatio="xMidYMid meet" fill="#000000">
<g id="SVGRepo_bgCarrier" stroke-width="0"/>
<g id="SVGRepo_tracerCarrier" stroke-linecap="round" stroke-linejoin="round"/>
<g id="SVGRepo_iconCarrier">
<path fill="#911666" d="M36 32a4 4 0 0 1-4 4H4a4 4 0 0 1-4-4V4a4 4 0 0 1 4-4h28a4 4 0 0 1 4 4v28z"/>
<path fill="#FFF" d="M18 22.5c-4.687 0-8.5-3.813-8.5-8.5s3.813-8.5 8.5-8.5s8.5 3.813 8.5 8.5s-3.813 8.5-8.5 8.5zm0-14c-3.033 0-5.5 2.468-5.5 5.5s2.467 5.5 5.5 5.5s5.5-2.468 5.5-5.5s-2.467-5.5-5.5-5.5z"/>
<path fill="#FFF" d="M18 31.5a1.5 1.5 0 0 1-1.5-1.5v-9a1.5 1.5 0 1 1 3 0v9a1.5 1.5 0 0 1-1.5 1.5z"/>
<path fill="#FFF" d="M22.875 27.5h-9.75a1.5 1.5 0 1 1 0-3h9.75a1.5 1.5 0 1 1 0 3z"/>
</g>
</svg>