<!DOCTYPE svg PUBLIC "-//W3C//DTD SVG 1.1//EN" "http://www.w3.org/Graphics/SVG/1.1/DTD/svg11.dtd">
<!-- Uploaded to: SVG Repo, www.svgrepo.com, Transformed by: SVG Repo Mixer Tools -->
<svg width="256px" height="256px" viewBox="0 0 36 36" xmlns="http://www.w3.org/2000/svg" xmlns:xlink="http://www.w3.org/1999/xlink" aria-hidden="true" role="img" class="iconify iconify--twemoji" preserveAspectRatio="xMidYMid meet" fill="#000000">
<g id="SVGRepo_bgCarrier" stroke-width="0"/>
<g id="SVGRepo_tracerCarrier" stroke-linecap="round" stroke-linejoin="round"/>
<g id="SVGRepo_iconCarrier">
<path fill="#911666" d="M36 32a4 4 0 0 1-4 4H4a4 4 0 0 1-4-4V4a4 4 0 0 1 4-4h28a4 4 0 0 1 4 4v28z"/>
<path fill="#FFF" d="M28.5 6H17a1.5 1.5 0 1 0 0 3h7.879L13 20.879L9.061 16.94a1.5 1.5 0 1 0-2.121 2.121L10.879 23L5.94 27.94a1.5 1.5 0 1 0 2.121 2.12L13 25.121l3.94 3.939a1.496 1.496 0 0 0 2.12 0a1.5 1.5 0 0 0 0-2.121L15.121 23L27 11.121V19a1.5 1.5 0 0 0 3 0V7.5A1.5 1.5 0 0 0 28.5 6z"/>
</g>
</svg>